<svg height="25" viewBox="0 0 693 61" fill="none" xmlns="http://www.w3.org/2000/svg">
<path d="M35.96 30.2L35.6191 29.0494L35.7099 31.3736L35.96 30.2ZM43.8 35.08L42.8495 35.8126L42.8571 35.8223L43.8 35.08ZM41.8 54.92L42.5697 55.8406L42.5711 55.8394L41.8 54.92ZM1.96 59H0.76V60.2H1.96V59ZM1.96 2.84V1.64H0.76V2.84H1.96ZM40.6 6.76L39.8409 7.68946L39.8485 7.69554L40.6 6.76ZM42.84 25.64L41.9052 24.8876L41.8996 24.8946L41.894 24.9017L42.84 25.64ZM15.64 25.56H14.44V26.76H15.64V25.56ZM29.72 24.12L30.4799 25.0488L30.4843 25.0452L29.72 24.12ZM29.72 15.32L28.9357 16.2282L28.9456 16.2368L28.9557 16.2452L29.72 15.32ZM15.64 13.8V12.6H14.44V13.8H15.64ZM31 46.44L31.7643 47.3652L31.7682 47.3619L31 46.44ZM30.92 37.24L30.1298 38.1431L30.1389 38.1511L30.1482 38.1588L30.92 37.24ZM15.64 35.56V34.36H14.44V35.56H15.64ZM15.64 47.96H14.44V49.16H15.64V47.96ZM35.7099 31.3736C38.6937 32.0095 41.0555 33.4851 42.8496 35.8126L44.7504 34.3474C42.5979 31.5549 39.7329 29.7771 36.2101 29.0264L35.7099 31.3736ZM42.8571 35.8223C44.6604 38.1129 45.56 40.7302 45.56 43.72H47.96C47.96 40.2032 46.8863 37.0605 44.7429 34.3377L42.8571 35.8223ZM45.56 43.72C45.56 48.0938 44.0378 51.477 41.0289 54.0006L42.5711 55.8394C46.1755 52.8164 47.96 48.7329 47.96 43.72H45.56ZM41.0303 53.9994C38.0628 56.4804 33.8125 57.8 28.12 57.8V60.2C34.1609 60.2 39.0305 58.7996 42.5697 55.8406L41.0303 53.9994ZM28.12 57.8H1.96V60.2H28.12V57.8ZM3.16 59V2.84H0.76V59H3.16ZM1.96 4.04H27.24V1.64H1.96V4.04ZM27.24 4.04C32.7746 4.04 36.9242 5.30741 39.841 7.68943L41.359 5.83056C37.8758 2.98592 33.1188 1.64 27.24 1.64V4.04ZM39.8485 7.69554C42.7952 10.0625 44.28 13.253 44.28 17.4H46.68C46.68 12.587 44.9115 8.68412 41.3515 5.82445L39.8485 7.69554ZM44.28 17.4C44.28 20.4838 43.4642 22.9506 41.9052 24.8876L43.7748 26.3924C45.7358 23.956 46.68 20.9295 46.68 17.4H44.28ZM41.894 24.9017C40.3541 26.8747 38.2803 28.2609 35.6191 29.0494L36.3009 31.3506C39.3997 30.4324 41.9126 28.7786 43.786 26.3783L41.894 24.9017ZM15.64 26.76H24.6V24.36H15.64V26.76ZM24.6 26.76C26.9892 26.76 29.0106 26.2509 30.4799 25.0487L28.9601 23.1913C28.0827 23.9091 26.6908 24.36 24.6 24.36V26.76ZM30.4843 25.0452C32.0442 23.7565 32.76 21.9163 32.76 19.72H30.36C30.36 21.3637 29.8492 22.4568 28.9557 23.1948L30.4843 25.0452ZM32.76 19.72C32.76 17.5237 32.0442 15.6835 30.4843 14.3948L28.9557 16.2452C29.8492 16.9832 30.36 18.0763 30.36 19.72H32.76ZM30.5043 14.4118C29.0337 13.1417 27.0022 12.6 24.6 12.6V15C26.6778 15 28.0596 15.4716 28.9357 16.2282L30.5043 14.4118ZM24.6 12.6H15.64V15H24.6V12.6ZM14.44 13.8V25.56H16.84V13.8H14.44ZM25.72 49.16C28.172 49.16 30.2452 48.6201 31.7643 47.3652L30.2357 45.5148C29.3015 46.2866 27.8547 46.76 25.72 46.76V49.16ZM31.7682 47.3619C33.3732 46.0244 34.12 44.1367 34.12 41.88H31.72C31.72 43.5699 31.1868 44.7222 30.2318 45.5181L31.7682 47.3619ZM34.12 41.88C34.12 39.6051 33.3347 37.7012 31.6918 36.3212L30.1482 38.1588C31.172 39.0188 31.72 40.2082 31.72 41.88H34.12ZM31.7102 36.3369C30.1452 34.9675 28.0418 34.36 25.56 34.36V36.76C27.6648 36.76 29.1348 37.2725 30.1298 38.1431L31.7102 36.3369ZM25.56 34.36H15.64V36.76H25.56V34.36ZM14.44 35.56V47.96H16.84V35.56H14.44ZM15.64 49.16H25.72V46.76H15.64V49.16ZM83.3344 59L82.2833 59.5791L82.6254 60.2H83.3344V59ZM71.6544 37.8L72.7054 37.2209L72.3633 36.6H71.6544V37.8ZM68.3744 37.8V36.6H67.1744V37.8H68.3744ZM68.3744 59V60.2H69.5744V59H68.3744ZM54.6944 59H53.4944V60.2H54.6944V59ZM54.6944 2.84V1.64H53.4944V2.84H54.6944ZM88.9344 5.16L88.3977 6.23333L88.405 6.23694L88.9344 5.16ZM95.9744 11.56L94.9312 12.1532L94.9363 12.1621L95.9744 11.56ZM95.0944 30.52L94.1239 29.8142L94.1197 29.82L94.1155 29.8259L95.0944 30.52ZM85.8144 36.76L85.4709 35.6102L84.0098 36.0466L84.7776 37.3642L85.8144 36.76ZM98.7744 59V60.2H100.863L99.8112 58.3958L98.7744 59ZM68.3744 28.12H67.1744V29.32H68.3744V28.12ZM82.4544 26.28L81.6241 25.4136L81.6149 25.4224L81.6058 25.4315L82.4544 26.28ZM82.4544 16.04L81.6058 16.8885L81.6149 16.8976L81.6241 16.9064L82.4544 16.04ZM68.3744 14.2V13H67.1744V14.2H68.3744ZM84.3854 58.4209L72.7054 37.2209L70.6033 38.3791L82.2833 59.5791L84.3854 58.4209ZM71.6544 36.6H68.3744V39H71.6544V36.6ZM67.1744 37.8V59H69.5744V37.8H67.1744ZM68.3744 57.8H54.6944V60.2H68.3744V57.8ZM55.8944 59V2.84H53.4944V59H55.8944ZM54.6944 4.04H77.6544V1.64H54.6944V4.04ZM77.6544 4.04C81.9453 4.04 85.511 4.78995 88.3977 6.23331L89.471 4.08668C86.1711 2.43671 82.2168 1.64 77.6544 1.64V4.04ZM88.405 6.23694C91.3628 7.69077 93.5175 9.667 94.9312 12.1532L97.0175 10.9668C95.3379 8.01299 92.7993 5.72256 89.4637 4.08306L88.405 6.23694ZM94.9363 12.1621C96.3692 14.6325 97.0944 17.4089 97.0944 20.52H99.4944C99.4944 17.0178 98.6729 13.8208 97.0124 10.9579L94.9363 12.1621ZM97.0944 20.52C97.0944 24.0077 96.1034 27.0923 94.1239 29.8142L96.0649 31.2258C98.352 28.081 99.4944 24.499 99.4944 20.52H97.0944ZM94.1155 29.8259C92.2187 32.5008 89.3719 34.445 85.4709 35.6102L86.1578 37.9098C90.4702 36.6217 93.81 34.4058 96.0733 31.2141L94.1155 29.8259ZM84.7776 37.3642L97.7376 59.6042L99.8112 58.3958L86.8512 36.1558L84.7776 37.3642ZM98.7744 57.8H83.3344V60.2H98.7744V57.8ZM68.3744 29.32H76.8544V26.92H68.3744V29.32ZM76.8544 29.32C79.5373 29.32 81.7675 28.6639 83.3029 27.1285L81.6058 25.4315C80.6879 26.3494 79.1848 26.92 76.8544 26.92V29.32ZM83.2847 27.1464C84.8595 25.6371 85.5744 23.5558 85.5744 21.08H83.1744C83.1744 23.0842 82.6092 24.4695 81.6241 25.4136L83.2847 27.1464ZM85.5744 21.08C85.5744 18.6912 84.848 16.6718 83.2847 15.1736L81.6241 16.9064C82.6208 17.8615 83.1744 19.2022 83.1744 21.08H85.5744ZM83.3029 15.1915C81.7675 13.6561 79.5373 13 76.8544 13V15.4C79.1848 15.4 80.6879 15.9706 81.6058 16.8885L83.3029 15.1915ZM76.8544 13H68.3744V15.4H76.8544V13ZM67.1744 14.2V28.12H69.5744V14.2H67.1744ZM120.322 2.84H121.522V1.64H120.322V2.84ZM122.802 44.2L121.915 45.0085L121.915 45.0085L122.802 44.2ZM137.442 44.2L138.316 45.0224L138.316 45.0224L137.442 44.2ZM140.002 2.84V1.64H138.802V2.84H140.002ZM153.682 2.84H154.882V1.64H153.682V2.84ZM150.482 49.08L151.504 49.7089L151.504 49.7089L150.482 49.08ZM141.842 56.92L141.318 55.8404L141.312 55.8435L141.842 56.92ZM117.922 57L117.379 58.07L117.388 58.075L117.398 58.0798L117.922 57ZM109.682 49.16L108.642 49.7588L108.646 49.7656L109.682 49.16ZM106.642 2.84V1.64H105.442V2.84H106.642ZM119.122 2.84V36.44H121.522V2.84H119.122ZM119.122 36.44C119.122 39.9876 119.996 42.9037 121.915 45.0085L123.689 43.3915C122.301 41.8697 121.522 39.6123 121.522 36.44H119.122ZM121.915 45.0085C123.86 47.1414 126.653 48.12 130.082 48.12V45.72C127.111 45.72 125.051 44.8852 123.689 43.3915L121.915 45.0085ZM130.082 48.12C133.513 48.12 136.322 47.1408 138.316 45.0224L136.568 43.3776C135.148 44.8859 133.051 45.72 130.082 45.72V48.12ZM138.316 45.0224C140.296 42.9182 141.202 39.9968 141.202 36.44H138.802C138.802 39.6032 138.001 41.8551 136.568 43.3776L138.316 45.0224ZM141.202 36.44V2.84H138.802V36.44H141.202ZM140.002 4.04H153.682V1.64H140.002V4.04ZM152.482 2.84V36.36H154.882V2.84H152.482ZM152.482 36.36C152.482 41.2026 151.453 45.213 149.46 48.4511L151.504 49.7089C153.778 46.0137 154.882 41.544 154.882 36.36H152.482ZM149.46 48.4511C147.445 51.7252 144.737 54.1812 141.318 55.8404L142.366 57.9996C146.2 56.1388 149.252 53.3681 151.504 49.7089L149.46 48.4511ZM141.312 55.8435C137.921 57.5136 134.105 58.36 129.842 58.36V60.76C134.432 60.76 138.616 59.8464 142.372 57.9965L141.312 55.8435ZM129.842 58.36C125.573 58.36 121.782 57.5379 118.445 55.9202L117.398 58.0798C121.102 59.8754 125.258 60.76 129.842 60.76V58.36ZM118.465 55.93C115.211 54.2778 112.632 51.8291 110.718 48.5544L108.646 49.7656C110.785 53.4243 113.7 56.2022 117.379 58.07L118.465 55.93ZM110.722 48.5612C108.822 45.2615 107.842 41.212 107.842 36.36H105.442C105.442 41.5347 106.488 46.0185 108.642 49.7588L110.722 48.5612ZM107.842 36.36V2.84H105.442V36.36H107.842ZM106.642 4.04H120.322V1.64H106.642V4.04ZM213.528 59V60.2H214.728V59H213.528ZM199.848 59L198.847 59.6614L199.203 60.2H199.848V59ZM176.968 24.36L177.969 23.6986L175.768 20.3659V24.36H176.968ZM176.968 59V60.2H178.168V59H176.968ZM163.288 59H162.088V60.2H163.288V59ZM163.288 2.84V1.64H162.088V2.84H163.288ZM176.968 2.84L177.971 2.18075L177.615 1.64H176.968V2.84ZM199.848 37.64L198.845 38.2992L201.048 41.6495V37.64H199.848ZM199.848 2.84V1.64H198.648V2.84H199.848ZM213.528 2.84H214.728V1.64H213.528V2.84ZM213.528 57.8H199.848V60.2H213.528V57.8ZM200.849 58.3386L177.969 23.6986L175.967 25.0214L198.847 59.6614L200.849 58.3386ZM175.768 24.36V59H178.168V24.36H175.768ZM176.968 57.8H163.288V60.2H176.968V57.8ZM164.488 59V2.84H162.088V59H164.488ZM163.288 4.04H176.968V1.64H163.288V4.04ZM175.965 3.49924L198.845 38.2992L200.851 36.9808L177.971 2.18075L175.965 3.49924ZM201.048 37.64V2.84H198.648V37.64H201.048ZM199.848 4.04H213.528V1.64H199.848V4.04ZM212.328 2.84V59H214.728V2.84H212.328ZM235.444 55.88L234.857 56.9266L234.863 56.9296L235.444 55.88ZM224.964 45.64L223.926 46.2407L223.93 46.2482L223.934 46.2555L224.964 45.64ZM224.964 15.96L223.934 15.3444L223.929 15.3538L224.964 15.96ZM235.444 5.72L234.863 4.6704L234.857 4.67343L235.444 5.72ZM264.484 5.72L263.897 6.76658L263.903 6.76958L264.484 5.72ZM274.884 15.96L273.843 16.5568L273.849 16.5662L274.884 15.96ZM274.884 45.64L275.92 46.2462L275.923 46.2407L274.884 45.64ZM264.484 55.88L265.071 56.9266L265.071 56.9266L264.484 55.88ZM260.724 42.6L259.837 41.792L259.829 41.8008L260.724 42.6ZM260.724 18.92L259.829 19.7192L259.837 19.7276L259.844 19.7359L260.724 18.92ZM239.124 18.84L238.244 18.024L238.236 18.0328L239.124 18.84ZM239.124 42.68L238.229 43.4792L238.237 43.4876L238.244 43.4959L239.124 42.68ZM250.004 58.36C244.919 58.36 240.267 57.1808 236.026 54.8304L234.863 56.9296C239.475 59.4859 244.53 60.76 250.004 60.76V58.36ZM236.031 54.8334C231.844 52.4843 228.502 49.2209 225.994 45.0245L223.934 46.2555C226.653 50.8058 230.298 54.369 234.857 56.9266L236.031 54.8334ZM226.003 45.0392C223.557 40.8087 222.324 36.0586 222.324 30.76H219.924C219.924 36.4481 221.252 41.618 223.926 46.2407L226.003 45.0392ZM222.324 30.76C222.324 25.4613 223.557 20.7403 226 16.5662L223.929 15.3538C221.252 19.9263 219.924 25.0721 219.924 30.76H222.324ZM225.994 16.5755C228.502 12.3791 231.844 9.11567 236.031 6.76657L234.857 4.67343C230.298 7.231 226.653 10.7942 223.934 15.3444L225.994 16.5755ZM236.026 6.76958C240.267 4.41924 244.919 3.24 250.004 3.24V0.839999C244.53 0.839999 239.475 2.11409 234.863 4.67041L236.026 6.76958ZM250.004 3.24C255.09 3.24 259.713 4.41922 263.897 6.76657L265.071 4.67343C260.509 2.11411 255.479 0.839999 250.004 0.839999V3.24ZM263.903 6.76958C268.139 9.11718 271.446 12.3743 273.843 16.5567L275.925 15.3633C273.309 10.7991 269.684 7.22948 265.066 4.67041L263.903 6.76958ZM273.849 16.5662C276.292 20.7403 277.524 25.4613 277.524 30.76H279.924C279.924 25.0721 278.597 19.9263 275.92 15.3538L273.849 16.5662ZM277.524 30.76C277.524 36.0586 276.292 40.8087 273.846 45.0392L275.923 46.2407C278.597 41.618 279.924 36.4481 279.924 30.76H277.524ZM273.849 45.0338C271.395 49.2251 268.083 52.4856 263.897 54.8334L265.071 56.9266C269.633 54.3678 273.253 50.8015 275.92 46.2462L273.849 45.0338ZM263.897 54.8334C259.713 57.1808 255.09 58.36 250.004 58.36V60.76C255.479 60.76 260.509 59.4859 265.071 56.9266L263.897 54.8334ZM250.004 48.28C254.781 48.28 258.697 46.6728 261.62 43.3992L259.829 41.8008C257.419 44.5005 254.188 45.88 250.004 45.88V48.28ZM261.612 43.408C264.574 40.1551 266.004 35.8981 266.004 30.76H263.604C263.604 35.4352 262.315 39.0716 259.837 41.792L261.612 43.408ZM266.004 30.76C266.004 25.5734 264.576 21.3094 261.604 18.1041L259.844 19.7359C262.312 22.3973 263.604 26.0266 263.604 30.76H266.004ZM261.62 18.1208C258.697 14.8472 254.781 13.24 250.004 13.24V15.64C254.188 15.64 257.419 17.0195 259.829 19.7192L261.62 18.1208ZM250.004 13.24C245.186 13.24 241.223 14.812 238.244 18.0241L240.004 19.6559C242.466 17.0013 245.756 15.64 250.004 15.64V13.24ZM238.236 18.0328C235.32 21.2409 233.924 25.5301 233.924 30.76H236.324C236.324 25.9632 237.595 22.3057 240.012 19.6472L238.236 18.0328ZM233.924 30.76C233.924 35.9415 235.322 40.2235 238.229 43.4792L240.02 41.8808C237.593 39.1632 236.324 35.4985 236.324 30.76H233.924ZM238.244 43.4959C241.223 46.7079 245.186 48.28 250.004 48.28V45.88C245.756 45.88 242.466 44.5187 240.004 41.8641L238.244 43.4959ZM312.568 57.56L312.113 58.6704L312.113 58.6704L312.568 57.56ZM304.728 51.64L303.761 52.3505L303.766 52.3568L303.77 52.3631L304.728 51.64ZM301.688 42.2V41H300.453L300.489 42.2348L301.688 42.2ZM316.248 42.2L317.442 42.0776L317.331 41H316.248V42.2ZM318.408 47L317.599 47.8862L317.61 47.896L317.621 47.9055L318.408 47ZM328.008 47.24L328.742 48.1895L328.755 48.1793L328.768 48.1687L328.008 47.24ZM328.328 39.88L327.48 40.7285L327.492 40.7406L327.504 40.7524L328.328 39.88ZM324.888 37.64L324.405 38.7384L324.413 38.7418L324.421 38.7452L324.888 37.64ZM319.128 35.64L318.774 36.7866L318.786 36.7901L319.128 35.64ZM310.248 32.28L309.722 33.3583L310.248 32.28ZM304.328 27.32L305.285 26.5963L305.285 26.5963L304.328 27.32ZM307.528 6.52L308.263 7.46869L308.271 7.4622L307.528 6.52ZM337.288 6.52L336.545 7.46223L336.553 7.46866L337.288 6.52ZM343.368 18.84V20.04H344.63L344.567 18.7795L343.368 18.84ZM328.568 18.84L327.37 18.9105L327.437 20.04H328.568V18.84ZM326.568 14.6L325.781 15.5055L325.792 15.5155L325.804 15.5252L326.568 14.6ZM317.848 14.36L318.621 15.2779L318.635 15.2663L318.648 15.2543L317.848 14.36ZM318.888 22.36L319.501 21.3282L319.501 21.3282L318.888 22.36ZM326.888 25.64L327.273 24.5033L327.265 24.5007L327.258 24.4983L326.888 25.64ZM335.688 29.16L335.151 30.2334L335.162 30.2383L335.688 29.16ZM341.608 34.04L340.66 34.7751L340.66 34.7751L341.608 34.04ZM341.608 51L340.594 50.3584L340.589 50.3659L340.585 50.3734L341.608 51ZM334.568 57.24L334.031 56.1667L334.031 56.1667L334.568 57.24ZM323.608 58.36C319.632 58.36 316.11 57.7147 313.023 56.4496L312.113 58.6704C315.533 60.072 319.371 60.76 323.608 60.76V58.36ZM313.023 56.4496C309.954 55.1917 307.52 53.3457 305.686 50.9169L303.77 52.3631C305.883 55.161 308.676 57.2616 312.113 58.6704L313.023 56.4496ZM305.695 50.9295C303.938 48.5384 302.988 45.6358 302.888 42.1652L300.489 42.2348C300.601 46.1242 301.678 49.5149 303.761 52.3505L305.695 50.9295ZM301.688 43.4H316.248V41H301.688V43.4ZM315.054 42.3224C315.29 44.617 316.103 46.52 317.599 47.8862L319.217 46.1138C318.26 45.24 317.633 43.943 317.442 42.0776L315.054 42.3224ZM317.621 47.9055C319.11 49.2006 321.01 49.8 323.208 49.8V47.4C321.46 47.4 320.16 46.9327 319.196 46.0945L317.621 47.9055ZM323.208 49.8C325.404 49.8 327.293 49.309 328.742 48.1895L327.274 46.2905C326.376 46.9844 325.065 47.4 323.208 47.4V49.8ZM328.768 48.1687C330.247 46.9583 330.968 45.2961 330.968 43.32H328.568C328.568 44.6505 328.115 45.6017 327.248 46.3113L328.768 48.1687ZM330.968 43.32C330.968 41.6218 330.365 40.1534 329.152 39.0076L327.504 40.7524C328.211 41.4199 328.568 42.2449 328.568 43.32H330.968ZM329.177 39.0315C328.143 37.9982 326.86 37.1714 325.356 36.5348L324.421 38.7452C325.689 39.2819 326.699 39.9484 327.48 40.7285L329.177 39.0315ZM325.371 36.5416C323.97 35.9249 321.994 35.2416 319.471 34.4899L318.786 36.7901C321.276 37.5318 323.14 38.1817 324.405 38.7384L325.371 36.5416ZM319.482 34.4934C315.889 33.3838 312.993 32.2849 310.775 31.2017L309.722 33.3583C312.09 34.5151 315.114 35.6562 318.774 36.7866L319.482 34.4934ZM310.775 31.2017C308.663 30.1705 306.834 28.644 305.285 26.5963L303.371 28.0437C305.129 30.3694 307.246 32.1495 309.722 33.3583L310.775 31.2017ZM305.285 26.5963C303.829 24.6706 303.048 22.0935 303.048 18.76H300.648C300.648 22.4665 301.52 25.5961 303.371 28.0437L305.285 26.5963ZM303.048 18.76C303.048 13.8655 304.799 10.1519 308.263 7.46866L306.793 5.57134C302.684 8.75477 300.648 13.2011 300.648 18.76H303.048ZM308.271 7.4622C311.796 4.68202 316.446 3.24 322.328 3.24V0.839999C316.05 0.839999 310.833 2.38464 306.785 5.5778L308.271 7.4622ZM322.328 3.24C328.322 3.24 333.024 4.68476 336.545 7.4622L338.031 5.5778C333.979 2.3819 328.707 0.839999 322.328 0.839999V3.24ZM336.553 7.46866C340.033 10.1639 341.919 13.9292 342.17 18.9005L344.567 18.7795C344.284 13.1908 342.117 8.74278 338.023 5.57134L336.553 7.46866ZM343.368 17.64H328.568V20.04H343.368V17.64ZM329.766 18.7695C329.643 16.6753 328.854 14.9314 327.332 13.6748L325.804 15.5252C326.736 16.2952 327.28 17.3781 327.37 18.9105L329.766 18.7695ZM327.356 13.6945C325.872 12.4046 324.002 11.8 321.848 11.8V14.2C323.534 14.2 324.811 14.6621 325.781 15.5055L327.356 13.6945ZM321.848 11.8C319.966 11.8 318.327 12.3218 317.048 13.4657L318.648 15.2543C319.396 14.5849 320.423 14.2 321.848 14.2V11.8ZM317.075 13.4421C315.726 14.5785 315.128 16.2081 315.128 18.12H317.528C317.528 16.7252 317.944 15.8482 318.621 15.2779L317.075 13.4421ZM315.128 18.12C315.128 20.4031 316.246 22.187 318.275 23.3918L319.501 21.3282C318.117 20.5063 317.528 19.4636 317.528 18.12H315.128ZM318.275 23.3918C320.1 24.4751 322.87 25.6011 326.519 26.7817L327.258 24.4983C323.653 23.3322 321.09 22.2715 319.501 21.3282L318.275 23.3918ZM326.504 26.7767C330.102 27.9939 332.979 29.1472 335.151 30.2333L336.225 28.0867C333.917 26.9328 330.927 25.7394 327.273 24.5033L326.504 26.7767ZM335.162 30.2383C337.28 31.2731 339.112 32.7784 340.66 34.7751L342.557 33.3049C340.797 31.035 338.683 29.2869 336.215 28.0817L335.162 30.2383ZM340.66 34.7751C342.113 36.6509 342.888 39.1196 342.888 42.28H345.288C345.288 38.7204 344.41 35.6957 342.557 33.3049L340.66 34.7751ZM342.888 42.28C342.888 45.2612 342.122 47.944 340.594 50.3584L342.622 51.6416C344.401 48.8294 345.288 45.6988 345.288 42.28H342.888ZM340.585 50.3734C339.117 52.7714 336.95 54.7072 334.031 56.1667L335.105 58.3133C338.372 56.6795 340.9 54.4553 342.632 51.6266L340.585 50.3734ZM334.031 56.1667C331.137 57.6138 327.675 58.36 323.608 58.36V60.76C327.968 60.76 331.812 59.9595 335.105 58.3133L334.031 56.1667ZM387.467 49.08L388.603 48.695L388.327 47.88H387.467V49.08ZM366.507 49.08V47.88H365.646L365.37 48.695L366.507 49.08ZM363.147 59V60.2H364.007L364.283 59.385L363.147 59ZM348.827 59L347.698 58.5917L347.117 60.2H348.827V59ZM369.147 2.84V1.64H368.305L368.018 2.43171L369.147 2.84ZM384.987 2.84L386.115 2.43171L385.829 1.64H384.987V2.84ZM405.307 59V60.2H407.017L406.435 58.5917L405.307 59ZM390.827 59L389.69 59.385L389.966 60.2H390.827V59ZM383.947 38.52V39.72H385.62L385.084 38.1352L383.947 38.52ZM376.987 17.96L378.124 17.5752L376.98 14.1981L375.849 17.5792L376.987 17.96ZM370.107 38.52L368.969 38.1392L368.44 39.72H370.107V38.52ZM387.467 47.88H366.507V50.28H387.467V47.88ZM365.37 48.695L362.01 58.615L364.283 59.385L367.643 49.465L365.37 48.695ZM363.147 57.8H348.827V60.2H363.147V57.8ZM349.955 59.4083L370.275 3.24828L368.018 2.43171L347.698 58.5917L349.955 59.4083ZM369.147 4.04H384.987V1.64H369.147V4.04ZM383.858 3.24828L404.178 59.4083L406.435 58.5917L386.115 2.43171L383.858 3.24828ZM405.307 57.8H390.827V60.2H405.307V57.8ZM391.963 58.615L388.603 48.695L386.33 49.465L389.69 59.385L391.963 58.615ZM385.084 38.1352L378.124 17.5752L375.85 18.3448L382.81 38.9048L385.084 38.1352ZM375.849 17.5792L368.969 38.1392L371.245 38.9008L378.125 18.3408L375.849 17.5792ZM370.107 39.72H383.947V37.32H370.107V39.72ZM461.731 59V60.2H462.931V59H461.731ZM448.051 59L447.05 59.6614L447.406 60.2H448.051V59ZM425.171 24.36L426.173 23.6986L423.971 20.3659V24.36H425.171ZM425.171 59V60.2H426.371V59H425.171ZM411.491 59H410.291V60.2H411.491V59ZM411.491 2.84V1.64H410.291V2.84H411.491ZM425.171 2.84L426.174 2.18075L425.818 1.64H425.171V2.84ZM448.051 37.64L447.049 38.2992L449.251 41.6495V37.64H448.051ZM448.051 2.84V1.64H446.851V2.84H448.051ZM461.731 2.84H462.931V1.64H461.731V2.84ZM461.731 57.8H448.051V60.2H461.731V57.8ZM449.053 58.3386L426.173 23.6986L424.17 25.0214L447.05 59.6614L449.053 58.3386ZM423.971 24.36V59H426.371V24.36H423.971ZM425.171 57.8H411.491V60.2H425.171V57.8ZM412.691 59V2.84H410.291V59H412.691ZM411.491 4.04H425.171V1.64H411.491V4.04ZM424.169 3.49924L447.049 38.2992L449.054 36.9808L426.174 2.18075L424.169 3.49924ZM449.251 37.64V2.84H446.851V37.64H449.251ZM448.051 4.04H461.731V1.64H448.051V4.04ZM460.531 2.84V59H462.931V2.84H460.531ZM512.048 2.84H513.248V1.64H512.048V2.84ZM512.048 13.8V15H513.248V13.8H512.048ZM497.168 13.8V12.6H495.968V13.8H497.168ZM497.168 59V60.2H498.368V59H497.168ZM483.488 59H482.288V60.2H483.488V59ZM483.488 13.8H484.688V12.6H483.488V13.8ZM468.608 13.8H467.407V15H468.608V13.8ZM468.608 2.84V1.64H467.407V2.84H468.608ZM510.848 2.84V13.8H513.248V2.84H510.848ZM512.048 12.6H497.168V15H512.048V12.6ZM495.968 13.8V59H498.368V13.8H495.968ZM497.168 57.8H483.488V60.2H497.168V57.8ZM484.688 59V13.8H482.288V59H484.688ZM483.488 12.6H468.608V15H483.488V12.6ZM469.808 13.8V2.84H467.407V13.8H469.808ZM468.608 4.04H512.048V1.64H468.608V4.04ZM553.873 49.08L555.01 48.695L554.734 47.88H553.873V49.08ZM532.913 49.08V47.88H532.053L531.777 48.695L532.913 49.08ZM529.553 59V60.2H530.414L530.69 59.385L529.553 59ZM515.233 59L514.105 58.5917L513.523 60.2H515.233V59ZM535.553 2.84V1.64H534.711L534.425 2.43171L535.553 2.84ZM551.393 2.84L552.522 2.43171L552.235 1.64H551.393V2.84ZM571.713 59V60.2H573.423L572.842 58.5917L571.713 59ZM557.233 59L556.097 59.385L556.373 60.2H557.233V59ZM550.353 38.52V39.72H552.026L551.49 38.1352L550.353 38.52ZM543.393 17.96L544.53 17.5752L543.387 14.1981L542.255 17.5792L543.393 17.96ZM536.513 38.52L535.375 38.1392L534.846 39.72H536.513V38.52ZM553.873 47.88H532.913V50.28H553.873V47.88ZM531.777 48.695L528.417 58.615L530.69 59.385L534.05 49.465L531.777 48.695ZM529.553 57.8H515.233V60.2H529.553V57.8ZM516.362 59.4083L536.682 3.24828L534.425 2.43171L514.105 58.5917L516.362 59.4083ZM535.553 4.04H551.393V1.64H535.553V4.04ZM550.265 3.24828L570.585 59.4083L572.842 58.5917L552.522 2.43171L550.265 3.24828ZM571.713 57.8H557.233V60.2H571.713V57.8ZM558.37 58.615L555.01 48.695L552.737 49.465L556.097 59.385L558.37 58.615ZM551.49 38.1352L544.53 17.5752L542.256 18.3448L549.216 38.9048L551.49 38.1352ZM542.255 17.5792L535.375 38.1392L537.651 38.9008L544.531 18.3408L542.255 17.5792ZM536.513 39.72H550.353V37.32H536.513V39.72ZM628.138 59V60.2H629.338V59H628.138ZM614.458 59L613.456 59.6614L613.812 60.2H614.458V59ZM591.578 24.36L592.579 23.6986L590.378 20.3659V24.36H591.578ZM591.578 59V60.2H592.778V59H591.578ZM577.898 59H576.698V60.2H577.898V59ZM577.898 2.84V1.64H576.698V2.84H577.898ZM591.578 2.84L592.58 2.18075L592.225 1.64H591.578V2.84ZM614.458 37.64L613.455 38.2992L615.658 41.6495V37.64H614.458ZM614.458 2.84V1.64H613.258V2.84H614.458ZM628.138 2.84H629.338V1.64H628.138V2.84ZM628.138 57.8H614.458V60.2H628.138V57.8ZM615.459 58.3386L592.579 23.6986L590.576 25.0214L613.456 59.6614L615.459 58.3386ZM590.378 24.36V59H592.778V24.36H590.378ZM591.578 57.8H577.898V60.2H591.578V57.8ZM579.098 59V2.84H576.698V59H579.098ZM577.898 4.04H591.578V1.64H577.898V4.04ZM590.575 3.49924L613.455 38.2992L615.46 36.9808L592.58 2.18075L590.575 3.49924ZM615.658 37.64V2.84H613.258V37.64H615.658ZM614.458 4.04H628.138V1.64H614.458V4.04ZM626.938 2.84V59H629.338V2.84H626.938ZM673.014 49.08L674.15 48.695L673.874 47.88H673.014V49.08ZM652.054 49.08V47.88H651.193L650.917 48.695L652.054 49.08ZM648.694 59V60.2H649.554L649.83 59.385L648.694 59ZM634.374 59L633.245 58.5917L632.663 60.2H634.374V59ZM654.694 2.84V1.64H653.852L653.565 2.43171L654.694 2.84ZM670.534 2.84L671.662 2.43171L671.376 1.64H670.534V2.84ZM690.854 59V60.2H692.564L691.982 58.5917L690.854 59ZM676.374 59L675.237 59.385L675.513 60.2H676.374V59ZM669.494 38.52V39.72H671.167L670.63 38.1352L669.494 38.52ZM662.534 17.96L663.67 17.5752L662.527 14.1981L661.396 17.5792L662.534 17.96ZM655.654 38.52L654.516 38.1392L653.987 39.72H655.654V38.52ZM673.014 47.88H652.054V50.28H673.014V47.88ZM650.917 48.695L647.557 58.615L649.83 59.385L653.19 49.465L650.917 48.695ZM648.694 57.8H634.374V60.2H648.694V57.8ZM635.502 59.4083L655.822 3.24828L653.565 2.43171L633.245 58.5917L635.502 59.4083ZM654.694 4.04H670.534V1.64H654.694V4.04ZM669.405 3.24828L689.725 59.4083L691.982 58.5917L671.662 2.43171L669.405 3.24828ZM690.854 57.8H676.374V60.2H690.854V57.8ZM677.51 58.615L674.15 48.695L671.877 49.465L675.237 59.385L677.51 58.615ZM670.63 38.1352L663.67 17.5752L661.397 18.3448L668.357 38.9048L670.63 38.1352ZM661.396 17.5792L654.516 38.1392L656.792 38.9008L663.672 18.3408L661.396 17.5792ZM655.654 39.72H669.494V37.32H655.654V39.72Z" fill="#F1F1F1"/>
</svg>
